<svg height="512pt" viewBox="0 0 512 512" width="512pt" xmlns="http://www.w3.org/2000/svg"><path d="m474.046875 408.273438v-72.890626h-203.046875v-40.71875h135.851562c45.996094 0 83.417969-37.421874 83.417969-83.417968 0-41.097656-30.085937-75.515625-69.394531-82.226563-8.09375-44.582031-46.898438-77.84375-93.523438-77.84375-10.542968 0-21.042968 1.769531-30.972656 5.1875-21.574218-34.648437-59.933594-56.363281-101.339844-56.363281-65.769531 0-119.277343 53.507812-119.277343 119.277344 0 4.542968.257812 9.082031.769531 13.585937-32.488281 11.761719-54.800781 42.679688-54.800781 78.382813 0 46 37.421875 83.417968 83.417969 83.417968h135.851562v40.71875h-203.046875v72.890626c-21.914063 6.484374-37.953125 26.785156-37.953125 50.773437 0 29.199219 23.753906 52.953125 52.953125 52.953125 29.195313 0 52.949219-23.753906 52.949219-52.953125 0-23.988281-16.039063-44.289063-37.949219-50.773437v-42.890626h173.046875v42.890626c-21.914062 6.484374-37.953125 26.785156-37.953125 50.773437 0 29.199219 23.753906 52.953125 52.953125 52.953125s52.953125-23.753906 52.953125-52.953125c0-23.988281-16.039063-44.289063-37.953125-50.773437v-42.890626h173.046875v42.890626c-21.910156 6.484374-37.949219 26.785156-37.949219 50.773437 0 29.199219 23.753906 52.953125 52.949219 52.953125 29.199219 0 52.953125-23.753906 52.953125-52.953125 0-23.988281-16.039062-44.289063-37.953125-50.773437zm-422.316406-197.027344c0-26.152344 18.6875-48.296875 44.4375-52.652344l15.851562-2.679688-3.769531-15.625c-1.652344-6.855468-2.492188-13.925781-2.492188-21.007812.003907-49.230469 40.054688-89.28125 89.28125-89.28125 34.683594 0 66.507813 20.355469 81.078126 51.855469l6.664062 14.410156 14.007812-7.46875c9.480469-5.058594 19.765626-7.621094 30.5625-7.621094 34.984376 0 63.542969 27.363281 65.011719 62.292969l.601563 14.265625 14.277344.105469c29.238281.210937 53.027343 24.167968 53.027343 53.40625 0 29.457031-23.964843 53.417968-53.417969 53.417968h-301.703124c-29.457032.003907-53.417969-23.960937-53.417969-53.417968zm24.171875 247.800781c0 12.65625-10.292969 22.953125-22.949219 22.953125s-22.953125-10.296875-22.953125-22.953125 10.296875-22.949219 22.953125-22.949219 22.949219 10.292969 22.949219 22.949219zm203.050781 0c0 12.65625-10.296875 22.953125-22.953125 22.953125s-22.953125-10.296875-22.953125-22.953125 10.296875-22.949219 22.953125-22.949219 22.953125 10.292969 22.953125 22.949219zm180.09375 22.953125c-12.65625 0-22.949219-10.296875-22.949219-22.953125s10.292969-22.949219 22.949219-22.949219 22.953125 10.292969 22.953125 22.949219-10.296875 22.953125-22.953125 22.953125zm0 0"/></svg>