<svg height="512pt" viewBox="0 0 512 512" width="512pt" xmlns="http://www.w3.org/2000/svg"><path d="m307.796875 512h-103.59375l-13.550781-46.621094c-12.585938-3.9375-24.792969-9.003906-36.460938-15.140625l-42.585937 23.40625-73.25-73.25 23.402343-42.585937c-6.132812-11.667969-11.199218-23.875-15.136718-36.460938l-46.621094-13.550781v-103.59375l46.621094-13.550781c3.9375-12.585938 9.003906-24.792969 15.140625-36.460938l-23.40625-42.585937 73.25-73.25 42.585937 23.402343c11.667969-6.132812 23.875-11.199218 36.460938-15.136718l13.550781-46.621094h103.59375l13.550781 46.621094c12.585938 3.9375 24.792969 9.003906 36.460938 15.140625l42.585937-23.40625 73.25 73.25-23.402343 42.585937c6.132812 11.667969 11.199218 23.875 15.136718 36.460938l46.621094 13.550781v103.59375l-46.621094 13.550781c-3.9375 12.585938-9.003906 24.792969-15.140625 36.460938l23.40625 42.585937-73.25 73.25-42.585937-23.402343c-11.667969 6.132812-23.875 11.199218-36.460938 15.136718zm-81.070313-30h58.546876l11.917968-41 8.140625-2.199219c15.734375-4.25 30.863281-10.53125 44.972657-18.671875l7.316406-4.222656 37.484375 20.601562 41.402343-41.402343-20.601562-37.484375 4.222656-7.316406c8.140625-14.105469 14.421875-29.238282 18.671875-44.972657l2.199219-8.140625 41-11.917968v-58.546876l-41-11.917968-2.199219-8.140625c-4.25-15.734375-10.53125-30.863281-18.671875-44.972657l-4.222656-7.316406 20.601562-37.484375-41.402343-41.398437-37.484375 20.597656-7.316406-4.222656c-14.109376-8.140625-29.238282-14.421875-44.972657-18.671875l-8.140625-2.199219-11.917968-41h-58.546876l-11.917968 41-8.140625 2.199219c-15.734375 4.25-30.863281 10.53125-44.972657 18.671875l-7.316406 4.222656-37.484375-20.601562-41.402343 41.402343 20.601562 37.484375-4.222656 7.316406c-8.140625 14.105469-14.421875 29.238282-18.671875 44.972657l-2.199219 8.140625-41 11.917968v58.546876l41 11.917968 2.199219 8.140625c4.25 15.734375 10.53125 30.863281 18.671875 44.972657l4.222656 7.316406-20.601562 37.484375 41.402343 41.402343 37.484375-20.601562 7.316406 4.222656c14.105469 8.140625 29.238282 14.421875 44.972657 18.671875l8.140625 2.199219zm0 0"/><path d="m256 326.179688c-38.695312 0-70.179688-31.480469-70.179688-70.179688s31.480469-70.179688 70.179688-70.179688 70.179688 31.480469 70.179688 70.179688-31.484376 70.179688-70.179688 70.179688zm0-110.359376c-22.15625 0-40.179688 18.023438-40.179688 40.179688s18.023438 40.179688 40.179688 40.179688 40.179688-18.023438 40.179688-40.179688-18.023438-40.179688-40.179688-40.179688zm0 0"/><path d="m256 386.179688c-71.78125 0-130.179688-58.398438-130.179688-130.179688s58.398438-130.179688 130.179688-130.179688 130.179688 58.398438 130.179688 130.179688-58.398438 130.179688-130.179688 130.179688zm0-230.359376c-55.238281 0-100.179688 44.941407-100.179688 100.179688s44.941407 100.179688 100.179688 100.179688 100.179688-44.941407 100.179688-100.179688-44.941407-100.179688-100.179688-100.179688zm0 0"/></svg>