<svg height="512pt" viewBox="-70 0 512 512" width="512pt" xmlns="http://www.w3.org/2000/svg"><path d="m304.640625 183.515625v-64.667969c0-65.53125-53.316406-118.847656-118.847656-118.847656s-118.847657 53.316406-118.847657 118.847656v64.667969c-40.882812 34.105469-66.945312 85.410156-66.945312 142.691406 0 102.445313 83.347656 185.792969 185.792969 185.792969 102.445312 0 185.792969-83.347656 185.792969-185.792969 0-57.28125-26.0625-108.585937-66.945313-142.691406zm-207.695313-64.667969c0-48.992187 39.855469-88.847656 88.847657-88.847656 48.992187 0 88.847656 39.855469 88.847656 88.847656v44.226563c-26.410156-14.441407-56.6875-22.660157-88.847656-22.660157-32.160157 0-62.4375 8.21875-88.847657 22.660157zm88.847657 363.152344c-85.902344 0-155.792969-69.890625-155.792969-155.792969 0-85.902343 69.890625-155.792969 155.792969-155.792969 85.902343 0 155.792969 69.890626 155.792969 155.792969 0 85.902344-69.890626 155.792969-155.792969 155.792969zm0 0"/><path d="m185.792969 200.414062c-69.363281 0-125.792969 56.429688-125.792969 125.792969s56.429688 125.792969 125.792969 125.792969 125.792969-56.429688 125.792969-125.792969-56.429688-125.792969-125.792969-125.792969zm0 221.585938c-52.820313 0-95.792969-42.972656-95.792969-95.792969 0-52.820312 42.972656-95.792969 95.792969-95.792969 52.820312 0 95.792969 42.972657 95.792969 95.792969 0 52.820313-42.972657 95.792969-95.792969 95.792969zm0 0"/><path d="m185.792969 264.671875c-24.824219 0-45.023438 20.195313-45.023438 45.023437 0 19.566407 12.550781 36.25 30.023438 42.445313v32.613281h30v-32.613281c17.472656-6.195313 30.023437-22.878906 30.023437-42.445313 0-24.828124-20.199218-45.023437-45.023437-45.023437zm0 60.046875c-8.285157 0-15.023438-6.742188-15.023438-15.023438 0-8.285156 6.738281-15.023437 15.023438-15.023437 8.285156 0 15.023437 6.738281 15.023437 15.023437 0 8.28125-6.738281 15.023438-15.023437 15.023438zm0 0"/></svg>